<svg width="38" height="38" viewBox="0 0 38 38" fill="none" xmlns="http://www.w3.org/2000/svg">
    <circle cx="18.953" cy="18.953" r="18.953" fill="#333333"/>
    <path d="M15.5399 27.1057C15.6228 27.1941 15.7356 27.2442 15.8534 27.2449C15.9119 27.2455 15.9698 27.2334 16.0238 27.2095C16.0777 27.1855 16.1264 27.1502 16.1669 27.1057L23.5601 19.2899C23.6017 19.2466 23.6346 19.195 23.6571 19.1381C23.6796 19.0812 23.6912 19.0202 23.6912 18.9585C23.6912 18.8968 23.6796 18.8358 23.6571 18.7789C23.6346 18.722 23.6017 18.6704 23.5601 18.627L16.1669 10.8097C16.1263 10.7637 16.0773 10.7269 16.0229 10.7014C15.9685 10.6758 15.9098 10.6622 15.8503 10.6611C15.7908 10.6601 15.7318 10.6717 15.6766 10.6953C15.6214 10.7188 15.5713 10.7539 15.5292 10.7984C15.4872 10.8429 15.454 10.8959 15.4317 10.9542C15.4093 11.0125 15.3984 11.075 15.3994 11.1379C15.4003 11.2008 15.4133 11.2628 15.4374 11.3203C15.4616 11.3778 15.4964 11.4296 15.5399 11.4726L22.6195 18.9585L15.5399 26.4428C15.4985 26.4862 15.4657 26.5378 15.4434 26.5947C15.421 26.6516 15.4094 26.7126 15.4094 26.7742C15.4094 26.8358 15.421 26.8968 15.4434 26.9537C15.4657 27.0106 15.4985 27.0622 15.5399 27.1057Z" fill="#AFBAC1"/>
</svg>
