<svg width="38" height="39" viewBox="0 0 38 39" fill="none" xmlns="http://www.w3.org/2000/svg">
    <circle cx="18.953" cy="19.2591" r="18.953" transform="rotate(-180 18.953 19.2591)" fill="#333333"/>
    <path d="M22.3661 11.1064C22.2831 11.0179 22.1704 10.9679 22.0526 10.9672C21.9941 10.9666 21.9361 10.9786 21.8822 11.0026C21.8283 11.0265 21.7796 11.0618 21.739 11.1064L14.3458 18.9221C14.3043 18.9654 14.2713 19.017 14.2488 19.0739C14.2263 19.1308 14.2148 19.1919 14.2148 19.2535C14.2148 19.3152 14.2263 19.3763 14.2488 19.4332C14.2713 19.4901 14.3043 19.5417 14.3458 19.585L21.739 27.4024C21.7797 27.4483 21.8287 27.4852 21.8831 27.5107C21.9374 27.5362 21.9961 27.5499 22.0556 27.5509C22.1151 27.552 22.1742 27.5404 22.2294 27.5168C22.2846 27.4932 22.3347 27.4581 22.3767 27.4136C22.4188 27.3691 22.452 27.3162 22.4743 27.2578C22.4966 27.1995 22.5076 27.1371 22.5066 27.0742C22.5056 27.0113 22.4927 26.9492 22.4685 26.8917C22.4444 26.8342 22.4096 26.7824 22.3661 26.7395L15.2864 19.2535L22.3661 11.7693C22.4074 11.7258 22.4402 11.6742 22.4626 11.6173C22.485 11.5604 22.4965 11.4994 22.4965 11.4378C22.4965 11.3762 22.485 11.3152 22.4626 11.2583C22.4402 11.2014 22.4074 11.1498 22.3661 11.1064Z" fill="#AFBAC1"/>
</svg>
